<?xml version="1.0" encoding="utf-8"?>
<svg width="57" height="18" viewBox="0 0 57 18" fill="none" xmlns="http://www.w3.org/2000/svg">
  <g id="Group">
    <path d="M2.60449 2.89746L2.60449 11.625L0.758789 11.625L0.758789 2.89746L2.60449 2.89746ZM5.90652 7.83984L5.90652 11.625L4.09011 11.625L4.09011 5.08008L5.82156 5.08008L5.82156 6.23438L5.89773 6.23438Q6.12038 5.66309 6.62722 5.3291Q7.13699 4.99512 7.86648 4.99512Q8.88894 4.99512 9.5071 5.6543Q10.1253 6.31055 10.1253 7.45605L10.1253 11.625L8.30886 11.625L8.30886 7.78125Q8.31472 7.18066 8.00124 6.84375Q7.6907 6.50391 7.14577 6.50391Q6.59792 6.50391 6.25222 6.85547Q5.90945 7.20703 5.90652 7.83984ZM13.3682 7.83984L13.3682 11.625L11.5518 11.625L11.5518 5.08008L13.2832 5.08008L13.2832 6.23438L13.3594 6.23438Q13.582 5.66309 14.0889 5.3291Q14.5986 4.99512 15.3281 4.99512Q16.3506 4.99512 16.9688 5.6543Q17.5869 6.31055 17.5869 7.45605L17.5869 11.625L15.7705 11.625L15.7705 7.78125Q15.7764 7.18066 15.4629 6.84375Q15.1523 6.50391 14.6074 6.50391Q14.0596 6.50391 13.7139 6.85547Q13.3711 7.20703 13.3682 7.83984ZM21.9724 11.7539Q20.9792 11.7539 20.2556 11.3291Q19.5349 10.9043 19.1423 10.1455Q18.7497 9.38379 18.7497 8.37891Q18.7497 7.3623 19.1423 6.60352Q19.5349 5.8418 20.2556 5.41992Q20.9792 4.99512 21.9724 4.99512Q22.9656 4.99512 23.6863 5.41992Q24.4099 5.8418 24.7995 6.60352Q25.1921 7.3623 25.1921 8.37891Q25.1921 9.38379 24.7995 10.1455Q24.4099 10.9043 23.6863 11.3291Q22.9656 11.7539 21.9724 11.7539ZM21.9812 10.3477Q22.6521 10.3477 23.0007 9.78516Q23.3493 9.22266 23.3493 8.36426Q23.3493 7.50879 23.0007 6.94336Q22.6521 6.37793 21.9812 6.37793Q21.2927 6.37793 20.9441 6.94336Q20.5954 7.50879 20.5954 8.36426Q20.5954 9.22266 20.9441 9.78516Q21.2927 10.3477 21.9812 10.3477ZM27.7615 11.625L25.2654 2.89746L27.281 2.89746L28.7253 8.96191L28.7986 8.96191L30.3923 2.89746L32.1179 2.89746L33.7087 8.97363L33.7849 8.97363L35.2292 2.89746L37.2449 2.89746L34.7458 11.625L32.9499 11.625L31.2859 5.91797L31.2185 5.91797L29.5603 11.625L27.7615 11.625ZM39.3526 11.748Q38.4151 11.748 37.797 11.2588Q37.1817 10.7695 37.1817 9.79688Q37.1817 9.06445 37.5245 8.64844Q37.8702 8.22949 38.4298 8.03613Q38.9923 7.83984 39.6397 7.78125Q40.4923 7.69629 40.8585 7.60254Q41.2247 7.50879 41.2247 7.19238L41.2247 7.16895Q41.2247 6.76172 40.9698 6.54199Q40.7179 6.31934 40.252 6.31934Q39.7628 6.31934 39.4727 6.5332Q39.1827 6.74707 39.089 7.0752L37.4102 6.9375Q37.5977 6.04395 38.3419 5.51953Q39.086 4.99512 40.2608 4.99512Q40.9903 4.99512 41.6231 5.22656Q42.2589 5.45508 42.6485 5.94434Q43.0411 6.43066 43.0411 7.20996L43.0411 11.625L41.3184 11.625L41.3184 10.7168L41.2657 10.7168Q41.0284 11.1738 40.5538 11.4609Q40.0792 11.748 39.3526 11.748ZM39.8741 10.4971Q40.4688 10.4971 40.8526 10.1484Q41.2364 9.7998 41.2364 9.28418L41.2364 8.58984Q41.1309 8.66309 40.9054 8.71875Q40.6827 8.77441 40.4278 8.81543Q40.1759 8.85645 39.9767 8.88574Q39.4991 8.95312 39.2061 9.15527Q38.9161 9.35449 38.9161 9.73828Q38.9161 10.1133 39.1856 10.3066Q39.4552 10.4971 39.8741 10.4971ZM44.4495 11.625L44.4495 5.08008L46.2102 5.08008L46.2102 6.22266L46.2776 6.22266Q46.4563 5.61328 46.8782 5.2998Q47.3001 4.98633 47.8509 4.98633Q48.1526 4.98633 48.4221 5.05078L48.4221 6.65918Q48.2932 6.61816 48.0676 6.5918Q47.8421 6.5625 47.6546 6.5625Q47.054 6.5625 46.6585 6.94043Q46.2659 7.31543 46.2659 7.92188L46.2659 11.625L44.4495 11.625ZM52.0299 11.7539Q51.025 11.7539 50.2955 11.3438Q49.569 10.9307 49.1764 10.1748Q48.7838 9.41895 48.7838 8.38184Q48.7838 7.37109 49.1764 6.60938Q49.569 5.84766 50.2809 5.42285Q50.9957 4.99512 51.9596 4.99512Q52.8239 4.99512 53.5211 5.36133Q54.2184 5.72754 54.6256 6.46875Q55.0358 7.20703 55.0358 8.31738L55.0358 8.81543L50.5768 8.81543L50.5768 8.82129Q50.5768 9.55371 50.9782 9.97559Q51.3795 10.3975 52.0621 10.3975Q52.5162 10.3975 52.8473 10.207Q53.1813 10.0137 53.319 9.63867L54.9977 9.75Q54.8043 10.6611 54.025 11.209Q53.2457 11.7539 52.0299 11.7539ZM50.5768 7.69043L53.3278 7.69043Q53.3219 7.10742 52.9498 6.72949Q52.5807 6.34863 51.9889 6.34863Q51.3825 6.34863 50.9957 6.74121Q50.609 7.13379 50.5768 7.69043Z" fill="#000000" transform="translate(1 3)" />
    <path id="Oval" d="M4.275 2.5C4.275 2.5 5 2.5 5 2.5C5 3.88071 3.88071 5 2.5 5C1.11929 5 0 3.88071 0 2.5C0 1.11929 1.11929 0 2.5 0C3.88071 0 5 1.11929 5 2.5C5 2.5 4.275 2.5 4.275 2.5C4.275 1.51969 3.48031 0.725 2.5 0.725C1.51969 0.725 0.725 1.51969 0.725 2.5C0.725 3.48031 1.51969 4.275 2.5 4.275C3.48031 4.275 4.275 3.48031 4.275 2.5Z" fill="#2196f3" fill-rule="evenodd" />
  </g>
</svg>