<?xml version="1.0" encoding="utf-8"?>
<svg width="48" height="50" viewBox="0 0 48 50" fill="none" xmlns="http://www.w3.org/2000/svg">
  <g fill="#FFFFFF" fill-opacity="0" transform="matrix(0 1 -1 0 48 0)">
    <path id="Rectangle" d="M39 0C45.076 0 50 4.92404 50 11L50 37C50 43.076 45.076 48 39 48L11 48C4.92404 48 0 43.076 0 37L0 11C0 4.92404 4.92404 0 11 0L39 0Z" />
    <path d="M50 11C50 4.92404 45.076 0 39 0L11 0C4.92404 0 0 4.92404 0 11L0 37C0 43.076 4.92404 48 11 48L39 48C45.076 48 50 43.076 50 37L50 11ZM11 4L39 4Q41.9001 4 43.95 6.04996Q46 8.09991 46 11L46 37Q46 39.9001 43.95 41.95Q41.9001 44 39 44L11 44Q8.09991 44 6.04993 41.95Q4 39.9001 4 37L4 11Q4 8.09991 6.04993 6.04996Q8.09991 4 11 4Z" fill="#EF5BAC" fill-rule="evenodd" />
  </g>
</svg>